<svg width="401" height="190" viewBox="0 0 401 190" fill="none" xmlns="http://www.w3.org/2000/svg">
<path d="M30.384 4.392V9.128H18.224V49H12.4V9.128H0.176V4.392H30.384ZM54.961 13.288C57.6063 13.288 59.9957 13.864 62.129 15.016C64.2623 16.1253 65.9263 17.8107 67.121 20.072C68.3583 22.3333 68.977 25.0853 68.977 28.328V49H63.217V29.16C63.217 25.6613 62.3423 22.9947 60.593 21.16C58.8437 19.2827 56.4543 18.344 53.425 18.344C50.353 18.344 47.8997 19.304 46.065 21.224C44.273 23.144 43.377 25.9387 43.377 29.608V49H37.553V1.64H43.377V18.92C44.529 17.128 46.1077 15.7413 48.113 14.76C50.161 13.7787 52.4437 13.288 54.961 13.288ZM110.491 30.12C110.491 31.2293 110.427 32.4027 110.299 33.64H82.2665C82.4798 37.096 83.6532 39.8053 85.7865 41.768C87.9625 43.688 90.5865 44.648 93.6585 44.648C96.1758 44.648 98.2665 44.072 99.9305 42.92C101.637 41.7253 102.832 40.1467 103.515 38.184H109.787C108.848 41.5547 106.971 44.3067 104.155 46.44C101.339 48.5307 97.8398 49.576 93.6585 49.576C90.3305 49.576 87.3438 48.8293 84.6985 47.336C82.0958 45.8427 80.0478 43.7307 78.5545 41C77.0612 38.2267 76.3145 35.0267 76.3145 31.4C76.3145 27.7733 77.0398 24.5947 78.4905 21.864C79.9412 19.1333 81.9678 17.0427 84.5705 15.592C87.2158 14.0987 90.2452 13.352 93.6585 13.352C96.9865 13.352 99.9305 14.0773 102.491 15.528C105.051 16.9787 107.013 18.984 108.379 21.544C109.787 24.0613 110.491 26.92 110.491 30.12ZM104.475 28.904C104.475 26.6853 103.984 24.7867 103.003 23.208C102.021 21.5867 100.677 20.3707 98.9705 19.56C97.3065 18.7067 95.4505 18.28 93.4025 18.28C90.4585 18.28 87.9412 19.2187 85.8505 21.096C83.8025 22.9733 82.6292 25.576 82.3305 28.904H104.475ZM152.649 13.288C155.294 13.288 157.683 13.864 159.817 15.016C161.95 16.1253 163.614 17.8107 164.809 20.072C166.046 22.3333 166.665 25.0853 166.665 28.328V49H160.905V29.16C160.905 25.6613 160.03 22.9947 158.281 21.16C156.531 19.2827 154.142 18.344 151.113 18.344C148.041 18.344 145.587 19.304 143.753 21.224C141.961 23.144 141.065 25.9387 141.065 29.608V49H135.241V1.64H141.065V18.92C142.217 17.128 143.795 15.7413 145.801 14.76C147.849 13.7787 150.131 13.288 152.649 13.288ZM191.474 49.576C188.189 49.576 185.202 48.8293 182.514 47.336C179.869 45.8427 177.778 43.7307 176.242 41C174.749 38.2267 174.002 35.0267 174.002 31.4C174.002 27.816 174.77 24.6587 176.306 21.928C177.885 19.1547 180.018 17.0427 182.706 15.592C185.394 14.0987 188.402 13.352 191.73 13.352C195.058 13.352 198.066 14.0987 200.754 15.592C203.442 17.0427 205.554 19.1333 207.09 21.864C208.669 24.5947 209.458 27.7733 209.458 31.4C209.458 35.0267 208.647 38.2267 207.026 41C205.447 43.7307 203.293 45.8427 200.562 47.336C197.831 48.8293 194.802 49.576 191.474 49.576ZM191.474 44.456C193.565 44.456 195.527 43.9653 197.362 42.984C199.197 42.0027 200.669 40.5307 201.778 38.568C202.93 36.6053 203.506 34.216 203.506 31.4C203.506 28.584 202.951 26.1947 201.842 24.232C200.733 22.2693 199.282 20.8187 197.49 19.88C195.698 18.8987 193.757 18.408 191.666 18.408C189.533 18.408 187.57 18.8987 185.778 19.88C184.029 20.8187 182.621 22.2693 181.554 24.232C180.487 26.1947 179.954 28.584 179.954 31.4C179.954 34.2587 180.466 36.6693 181.49 38.632C182.557 40.5947 183.965 42.0667 185.714 43.048C187.463 43.9867 189.383 44.456 191.474 44.456ZM259.292 13.288C262.022 13.288 264.454 13.864 266.588 15.016C268.721 16.1253 270.406 17.8107 271.644 20.072C272.881 22.3333 273.5 25.0853 273.5 28.328V49H267.74V29.16C267.74 25.6613 266.865 22.9947 265.116 21.16C263.409 19.2827 261.084 18.344 258.14 18.344C255.11 18.344 252.7 19.3253 250.908 21.288C249.116 23.208 248.22 26.0027 248.22 29.672V49H242.46V29.16C242.46 25.6613 241.585 22.9947 239.836 21.16C238.129 19.2827 235.804 18.344 232.86 18.344C229.83 18.344 227.42 19.3253 225.628 21.288C223.836 23.208 222.94 26.0027 222.94 29.672V49H217.116V13.928H222.94V18.984C224.092 17.1493 225.628 15.7413 227.548 14.76C229.51 13.7787 231.665 13.288 234.012 13.288C236.956 13.288 239.558 13.9493 241.82 15.272C244.081 16.5947 245.766 18.536 246.876 21.096C247.857 18.6213 249.478 16.7013 251.74 15.336C254.001 13.9707 256.518 13.288 259.292 13.288ZM315.053 30.12C315.053 31.2293 314.989 32.4027 314.861 33.64H286.829C287.042 37.096 288.216 39.8053 290.349 41.768C292.525 43.688 295.149 44.648 298.221 44.648C300.738 44.648 302.829 44.072 304.493 42.92C306.2 41.7253 307.394 40.1467 308.077 38.184H314.349C313.41 41.5547 311.533 44.3067 308.717 46.44C305.901 48.5307 302.402 49.576 298.221 49.576C294.893 49.576 291.906 48.8293 289.261 47.336C286.658 45.8427 284.61 43.7307 283.117 41C281.624 38.2267 280.877 35.0267 280.877 31.4C280.877 27.7733 281.602 24.5947 283.053 21.864C284.504 19.1333 286.53 17.0427 289.133 15.592C291.778 14.0987 294.808 13.352 298.221 13.352C301.549 13.352 304.493 14.0773 307.053 15.528C309.613 16.9787 311.576 18.984 312.941 21.544C314.349 24.0613 315.053 26.92 315.053 30.12ZM309.037 28.904C309.037 26.6853 308.546 24.7867 307.565 23.208C306.584 21.5867 305.24 20.3707 303.533 19.56C301.869 18.7067 300.013 18.28 297.965 18.28C295.021 18.28 292.504 19.2187 290.413 21.096C288.365 22.9733 287.192 25.576 286.893 28.904H309.037ZM355.099 49.576C351.814 49.576 348.827 48.8293 346.139 47.336C343.494 45.8427 341.403 43.7307 339.867 41C338.374 38.2267 337.627 35.0267 337.627 31.4C337.627 27.816 338.395 24.6587 339.931 21.928C341.51 19.1547 343.643 17.0427 346.331 15.592C349.019 14.0987 352.027 13.352 355.355 13.352C358.683 13.352 361.691 14.0987 364.379 15.592C367.067 17.0427 369.179 19.1333 370.715 21.864C372.294 24.5947 373.083 27.7733 373.083 31.4C373.083 35.0267 372.272 38.2267 370.651 41C369.072 43.7307 366.918 45.8427 364.187 47.336C361.456 48.8293 358.427 49.576 355.099 49.576ZM355.099 44.456C357.19 44.456 359.152 43.9653 360.987 42.984C362.822 42.0027 364.294 40.5307 365.403 38.568C366.555 36.6053 367.131 34.216 367.131 31.4C367.131 28.584 366.576 26.1947 365.467 24.232C364.358 22.2693 362.907 20.8187 361.115 19.88C359.323 18.8987 357.382 18.408 355.291 18.408C353.158 18.408 351.195 18.8987 349.403 19.88C347.654 20.8187 346.246 22.2693 345.179 24.232C344.112 26.1947 343.579 28.584 343.579 31.4C343.579 34.2587 344.091 36.6693 345.115 38.632C346.182 40.5947 347.59 42.0667 349.339 43.048C351.088 43.9867 353.008 44.456 355.099 44.456ZM395.013 18.728H387.653V49H381.829V18.728H377.285V13.928H381.829V11.432C381.829 7.50667 382.831 4.648 384.837 2.856C386.885 1.02133 390.149 0.103996 394.628 0.103996V4.968C392.069 4.968 390.255 5.48 389.189 6.504C388.165 7.48533 387.653 9.128 387.653 11.432V13.928H395.013V18.728ZM0.752 171.336C0.752 167.752 1.47733 164.616 2.928 161.928C4.37867 159.197 6.36267 157.085 8.88 155.592C11.44 154.099 14.2773 153.352 17.392 153.352C20.464 153.352 23.1307 154.013 25.392 155.336C27.6533 156.659 29.3387 158.323 30.448 160.328V153.928H36.336V189H30.448V182.472C29.296 184.52 27.568 186.227 25.264 187.592C23.0027 188.915 20.3573 189.576 17.328 189.576C14.2133 189.576 11.3973 188.808 8.88 187.272C6.36267 185.736 4.37867 183.581 2.928 180.808C1.47733 178.035 0.752 174.877 0.752 171.336ZM30.448 171.4C30.448 168.755 29.9147 166.451 28.848 164.488C27.7813 162.525 26.3307 161.032 24.496 160.008C22.704 158.941 20.72 158.408 18.544 158.408C16.368 158.408 14.384 158.92 12.592 159.944C10.8 160.968 9.37067 162.461 8.304 164.424C7.23733 166.387 6.704 168.691 6.704 171.336C6.704 174.024 7.23733 176.371 8.304 178.376C9.37067 180.339 10.8 181.853 12.592 182.92C14.384 183.944 16.368 184.456 18.544 184.456C20.72 184.456 22.704 183.944 24.496 182.92C26.3307 181.853 27.7813 180.339 28.848 178.376C29.9147 176.371 30.448 174.045 30.448 171.4ZM52.002 159.624C53.026 157.619 54.4767 156.061 56.354 154.952C58.274 153.843 60.5993 153.288 63.33 153.288V159.304H61.794C55.266 159.304 52.002 162.845 52.002 169.928V189H46.178V153.928H52.002V159.624ZM67.877 171.4C67.877 167.773 68.6023 164.616 70.053 161.928C71.5037 159.197 73.509 157.085 76.069 155.592C78.6717 154.099 81.637 153.352 84.965 153.352C89.2743 153.352 92.8157 154.397 95.589 156.488C98.405 158.579 100.261 161.48 101.157 165.192H94.885C94.2877 163.059 93.1143 161.373 91.365 160.136C89.6583 158.899 87.525 158.28 84.965 158.28C81.637 158.28 78.949 159.432 76.901 161.736C74.853 163.997 73.829 167.219 73.829 171.4C73.829 175.624 74.853 178.888 76.901 181.192C78.949 183.496 81.637 184.648 84.965 184.648C87.525 184.648 89.6583 184.051 91.365 182.856C93.0717 181.661 94.245 179.955 94.885 177.736H101.157C100.218 181.32 98.341 184.2 95.525 186.376C92.709 188.509 89.189 189.576 84.965 189.576C81.637 189.576 78.6717 188.829 76.069 187.336C73.509 185.843 71.5037 183.731 70.053 181C68.6023 178.269 67.877 175.069 67.877 171.4ZM126.336 153.288C128.981 153.288 131.371 153.864 133.504 155.016C135.637 156.125 137.301 157.811 138.496 160.072C139.733 162.333 140.352 165.085 140.352 168.328V189H134.592V169.16C134.592 165.661 133.717 162.995 131.968 161.16C130.219 159.283 127.829 158.344 124.8 158.344C121.728 158.344 119.275 159.304 117.44 161.224C115.648 163.144 114.752 165.939 114.752 169.608V189H108.928V141.64H114.752V158.92C115.904 157.128 117.483 155.741 119.488 154.76C121.536 153.779 123.819 153.288 126.336 153.288ZM152.874 148.232C151.764 148.232 150.826 147.848 150.058 147.08C149.29 146.312 148.906 145.373 148.906 144.264C148.906 143.155 149.29 142.216 150.058 141.448C150.826 140.68 151.764 140.296 152.874 140.296C153.94 140.296 154.836 140.68 155.562 141.448C156.33 142.216 156.714 143.155 156.714 144.264C156.714 145.373 156.33 146.312 155.562 147.08C154.836 147.848 153.94 148.232 152.874 148.232ZM155.69 153.928V189H149.866V153.928H155.69ZM172.72 158.728V179.4C172.72 181.107 173.082 182.323 173.808 183.048C174.533 183.731 175.792 184.072 177.583 184.072H181.872V189H176.624C173.381 189 170.949 188.253 169.328 186.76C167.706 185.267 166.896 182.813 166.896 179.4V158.728H162.352V153.928H166.896V145.096H172.72V153.928H181.872V158.728H172.72ZM220.928 170.12C220.928 171.229 220.864 172.403 220.736 173.64H192.704C192.917 177.096 194.091 179.805 196.224 181.768C198.4 183.688 201.024 184.648 204.096 184.648C206.613 184.648 208.704 184.072 210.368 182.92C212.075 181.725 213.269 180.147 213.952 178.184H220.224C219.285 181.555 217.408 184.307 214.592 186.44C211.776 188.531 208.277 189.576 204.096 189.576C200.768 189.576 197.781 188.829 195.136 187.336C192.533 185.843 190.485 183.731 188.992 181C187.499 178.227 186.752 175.027 186.752 171.4C186.752 167.773 187.477 164.595 188.928 161.864C190.379 159.133 192.405 157.043 195.008 155.592C197.653 154.099 200.683 153.352 204.096 153.352C207.424 153.352 210.368 154.077 212.928 155.528C215.488 156.979 217.451 158.984 218.816 161.544C220.224 164.061 220.928 166.92 220.928 170.12ZM214.912 168.904C214.912 166.685 214.421 164.787 213.44 163.208C212.459 161.587 211.115 160.371 209.408 159.56C207.744 158.707 205.888 158.28 203.84 158.28C200.896 158.28 198.379 159.219 196.288 161.096C194.24 162.973 193.067 165.576 192.768 168.904H214.912ZM226.44 171.4C226.44 167.773 227.165 164.616 228.616 161.928C230.066 159.197 232.072 157.085 234.632 155.592C237.234 154.099 240.2 153.352 243.528 153.352C247.837 153.352 251.378 154.397 254.152 156.488C256.968 158.579 258.824 161.48 259.72 165.192H253.448C252.85 163.059 251.677 161.373 249.928 160.136C248.221 158.899 246.088 158.28 243.528 158.28C240.2 158.28 237.512 159.432 235.464 161.736C233.416 163.997 232.392 167.219 232.392 171.4C232.392 175.624 233.416 178.888 235.464 181.192C237.512 183.496 240.2 184.648 243.528 184.648C246.088 184.648 248.221 184.051 249.928 182.856C251.634 181.661 252.808 179.955 253.448 177.736H259.72C258.781 181.32 256.904 184.2 254.088 186.376C251.272 188.509 247.752 189.576 243.528 189.576C240.2 189.576 237.234 188.829 234.632 187.336C232.072 185.843 230.066 183.731 228.616 181C227.165 178.269 226.44 175.069 226.44 171.4ZM274.595 158.728V179.4C274.595 181.107 274.957 182.323 275.683 183.048C276.408 183.731 277.667 184.072 279.458 184.072H283.747V189H278.499C275.256 189 272.824 188.253 271.203 186.76C269.581 185.267 268.771 182.813 268.771 179.4V158.728H264.227V153.928H268.771V145.096H274.595V153.928H283.747V158.728H274.595ZM321.907 153.928V189H316.083V183.816C314.974 185.608 313.416 187.016 311.411 188.04C309.448 189.021 307.272 189.512 304.883 189.512C302.152 189.512 299.699 188.957 297.523 187.848C295.347 186.696 293.619 184.989 292.339 182.728C291.102 180.467 290.483 177.715 290.483 174.472V153.928H296.243V173.704C296.243 177.16 297.118 179.827 298.867 181.704C300.616 183.539 303.006 184.456 306.035 184.456C309.15 184.456 311.603 183.496 313.395 181.576C315.187 179.656 316.083 176.861 316.083 173.192V153.928H321.907ZM337.565 159.624C338.589 157.619 340.039 156.061 341.917 154.952C343.837 153.843 346.162 153.288 348.893 153.288V159.304H347.357C340.829 159.304 337.565 162.845 337.565 169.928V189H331.741V153.928H337.565V159.624ZM387.616 170.12C387.616 171.229 387.552 172.403 387.424 173.64H359.392C359.605 177.096 360.778 179.805 362.912 181.768C365.088 183.688 367.712 184.648 370.784 184.648C373.301 184.648 375.392 184.072 377.056 182.92C378.762 181.725 379.957 180.147 380.64 178.184H386.912C385.973 181.555 384.096 184.307 381.28 186.44C378.464 188.531 374.965 189.576 370.784 189.576C367.456 189.576 364.469 188.829 361.824 187.336C359.221 185.843 357.173 183.731 355.68 181C354.186 178.227 353.44 175.027 353.44 171.4C353.44 167.773 354.165 164.595 355.616 161.864C357.066 159.133 359.093 157.043 361.696 155.592C364.341 154.099 367.37 153.352 370.784 153.352C374.112 153.352 377.056 154.077 379.616 155.528C382.176 156.979 384.138 158.984 385.504 161.544C386.912 164.061 387.616 166.92 387.616 170.12ZM381.6 168.904C381.6 166.685 381.109 164.787 380.128 163.208C379.146 161.587 377.802 160.371 376.096 159.56C374.432 158.707 372.576 158.28 370.528 158.28C367.584 158.28 365.066 159.219 362.976 161.096C360.928 162.973 359.754 165.576 359.456 168.904H381.6ZM397.159 189.384C396.05 189.384 395.111 189 394.343 188.232C393.575 187.464 393.191 186.525 393.191 185.416C393.191 184.307 393.575 183.368 394.343 182.6C395.111 181.832 396.05 181.448 397.159 181.448C398.226 181.448 399.122 181.832 399.847 182.6C400.615 183.368 400.999 184.307 400.999 185.416C400.999 186.525 400.615 187.464 399.847 188.232C399.122 189 398.226 189.384 397.159 189.384Z" fill="#1B1A1A"/>
<path d="M8.752 90.456C9.94667 88.3653 11.696 86.6587 14 85.336C16.304 84.0133 18.928 83.352 21.872 83.352C25.0293 83.352 27.8667 84.0987 30.384 85.592C32.9013 87.0853 34.8853 89.1973 36.336 91.928C37.7867 94.616 38.512 97.752 38.512 101.336C38.512 104.877 37.7867 108.035 36.336 110.808C34.8853 113.581 32.88 115.736 30.32 117.272C27.8027 118.808 24.9867 119.576 21.872 119.576C18.8427 119.576 16.176 118.915 13.872 117.592C11.6107 116.269 9.904 114.584 8.752 112.536V119H2.928V71.64H8.752V90.456ZM32.56 101.336C32.56 98.6907 32.0267 96.3867 30.96 94.424C29.8933 92.4613 28.4427 90.968 26.608 89.944C24.816 88.92 22.832 88.408 20.656 88.408C18.5227 88.408 16.5387 88.9413 14.704 90.008C12.912 91.032 11.4613 92.5467 10.352 94.552C9.28533 96.5147 8.752 98.7973 8.752 101.4C8.752 104.045 9.28533 106.371 10.352 108.376C11.4613 110.339 12.912 111.853 14.704 112.92C16.5387 113.944 18.5227 114.456 20.656 114.456C22.832 114.456 24.816 113.944 26.608 112.92C28.4427 111.853 29.8933 110.339 30.96 108.376C32.0267 106.371 32.56 104.024 32.56 101.336ZM78.178 100.12C78.178 101.229 78.114 102.403 77.986 103.64H49.954C50.1673 107.096 51.3407 109.805 53.474 111.768C55.65 113.688 58.274 114.648 61.346 114.648C63.8633 114.648 65.954 114.072 67.618 112.92C69.3247 111.725 70.5193 110.147 71.202 108.184H77.474C76.5353 111.555 74.658 114.307 71.842 116.44C69.026 118.531 65.5273 119.576 61.346 119.576C58.018 119.576 55.0313 118.829 52.386 117.336C49.7833 115.843 47.7353 113.731 46.242 111C44.7487 108.227 44.002 105.027 44.002 101.4C44.002 97.7733 44.7273 94.5947 46.178 91.864C47.6287 89.1333 49.6553 87.0427 52.258 85.592C54.9033 84.0987 57.9327 83.352 61.346 83.352C64.674 83.352 67.618 84.0773 70.178 85.528C72.738 86.9787 74.7007 88.984 76.066 91.544C77.474 94.0613 78.178 96.92 78.178 100.12ZM72.162 98.904C72.162 96.6853 71.6713 94.7867 70.69 93.208C69.7087 91.5867 68.3647 90.3707 66.658 89.56C64.994 88.7067 63.138 88.28 61.09 88.28C58.146 88.28 55.6287 89.2187 53.538 91.096C51.49 92.9733 50.3167 95.576 50.018 98.904H72.162ZM83.6895 101.336C83.6895 97.752 84.4148 94.616 85.8655 91.928C87.3162 89.1973 89.3002 87.0853 91.8175 85.592C94.3775 84.0987 97.2148 83.352 100.33 83.352C103.402 83.352 106.068 84.0133 108.33 85.336C110.591 86.6587 112.276 88.3227 113.386 90.328V83.928H119.274V119H113.386V112.472C112.234 114.52 110.506 116.227 108.202 117.592C105.94 118.915 103.295 119.576 100.266 119.576C97.1508 119.576 94.3348 118.808 91.8175 117.272C89.3002 115.736 87.3162 113.581 85.8655 110.808C84.4148 108.035 83.6895 104.877 83.6895 101.336ZM113.386 101.4C113.386 98.7547 112.852 96.4507 111.786 94.488C110.719 92.5253 109.268 91.032 107.434 90.008C105.642 88.9413 103.658 88.408 101.482 88.408C99.3055 88.408 97.3215 88.92 95.5295 89.944C93.7375 90.968 92.3082 92.4613 91.2415 94.424C90.1748 96.3867 89.6415 98.6907 89.6415 101.336C89.6415 104.024 90.1748 106.371 91.2415 108.376C92.3082 110.339 93.7375 111.853 95.5295 112.92C97.3215 113.944 99.3055 114.456 101.482 114.456C103.658 114.456 105.642 113.944 107.434 112.92C109.268 111.853 110.719 110.339 111.786 108.376C112.852 106.371 113.386 104.045 113.386 101.4ZM160.22 83.928V119H154.396V113.816C153.286 115.608 151.729 117.016 149.724 118.04C147.761 119.021 145.585 119.512 143.196 119.512C140.465 119.512 138.012 118.957 135.836 117.848C133.66 116.696 131.932 114.989 130.652 112.728C129.414 110.467 128.796 107.715 128.796 104.472V83.928H134.556V103.704C134.556 107.16 135.43 109.827 137.18 111.704C138.929 113.539 141.318 114.456 144.348 114.456C147.462 114.456 149.916 113.496 151.708 111.576C153.5 109.656 154.396 106.861 154.396 103.192V83.928H160.22ZM177.157 88.728V109.4C177.157 111.107 177.52 112.323 178.245 113.048C178.97 113.731 180.229 114.072 182.021 114.072H186.309V119H181.061C177.818 119 175.386 118.253 173.765 116.76C172.144 115.267 171.333 112.813 171.333 109.4V88.728H166.789V83.928H171.333V75.096H177.157V83.928H186.309V88.728H177.157ZM196.374 78.232C195.264 78.232 194.326 77.848 193.558 77.08C192.79 76.312 192.406 75.3733 192.406 74.264C192.406 73.1547 192.79 72.216 193.558 71.448C194.326 70.68 195.264 70.296 196.374 70.296C197.44 70.296 198.336 70.68 199.062 71.448C199.83 72.216 200.214 73.1547 200.214 74.264C200.214 75.3733 199.83 76.312 199.062 77.08C198.336 77.848 197.44 78.232 196.374 78.232ZM199.19 83.928V119H193.366V83.928H199.19ZM223.388 88.728H216.028V119H210.204V88.728H205.66V83.928H210.204V81.432C210.204 77.5067 211.206 74.648 213.212 72.856C215.26 71.0213 218.524 70.104 223.003 70.104V74.968C220.444 74.968 218.63 75.48 217.564 76.504C216.54 77.4853 216.028 79.128 216.028 81.432V83.928H223.388V88.728ZM261.282 83.928V119H255.458V113.816C254.349 115.608 252.791 117.016 250.786 118.04C248.823 119.021 246.647 119.512 244.258 119.512C241.527 119.512 239.074 118.957 236.898 117.848C234.722 116.696 232.994 114.989 231.714 112.728C230.477 110.467 229.858 107.715 229.858 104.472V83.928H235.618V103.704C235.618 107.16 236.493 109.827 238.242 111.704C239.991 113.539 242.381 114.456 245.41 114.456C248.525 114.456 250.978 113.496 252.77 111.576C254.562 109.656 255.458 106.861 255.458 103.192V83.928H261.282ZM276.94 71.64V119H271.116V71.64H276.94Z" fill="#1B1A1B"/>
</svg>
